<mxfile host="Electron" agent="Mozilla/5.0 (Windows NT 10.0; Win64; x64) AppleWebKit/537.36 (KHTML, like Gecko) draw.io/25.0.2 Chrome/128.0.6613.186 Electron/32.2.5 Safari/537.36" version="25.0.2">
  <diagram name="第 1 页" id="U2HGLTJhQW8OnWfelete">
    <mxGraphModel dx="2421" dy="705" grid="1" gridSize="10" guides="1" tooltips="1" connect="1" arrows="1" fold="1" page="1" pageScale="1" pageWidth="827" pageHeight="1169" math="0" shadow="0">
      <root>
        <mxCell id="0" />
        <mxCell id="1" parent="0" />
        <mxCell id="hcm8xV-bGuBULuQ5TfT4-6" style="edgeStyle=orthogonalEdgeStyle;rounded=0;orthogonalLoop=1;jettySize=auto;html=1;exitX=0.5;exitY=1;exitDx=0;exitDy=0;entryX=0.5;entryY=0;entryDx=0;entryDy=0;" parent="1" source="hcm8xV-bGuBULuQ5TfT4-1" target="hcm8xV-bGuBULuQ5TfT4-3" edge="1">
          <mxGeometry relative="1" as="geometry" />
        </mxCell>
        <mxCell id="hcm8xV-bGuBULuQ5TfT4-1" value="&lt;b&gt;&lt;font style=&quot;font-size: 16px;&quot;&gt;interface.py&lt;/font&gt;&lt;/b&gt;" style="rounded=0;whiteSpace=wrap;html=1;" parent="1" vertex="1">
          <mxGeometry x="-140" y="310" width="160" height="60" as="geometry" />
        </mxCell>
        <mxCell id="hcm8xV-bGuBULuQ5TfT4-7" style="edgeStyle=orthogonalEdgeStyle;rounded=0;orthogonalLoop=1;jettySize=auto;html=1;exitX=0.5;exitY=1;exitDx=0;exitDy=0;entryX=0.5;entryY=0;entryDx=0;entryDy=0;" parent="1" source="hcm8xV-bGuBULuQ5TfT4-2" target="hcm8xV-bGuBULuQ5TfT4-4" edge="1">
          <mxGeometry relative="1" as="geometry" />
        </mxCell>
        <mxCell id="dv-XQ-oOFh4G5-1dpEdn-7" style="edgeStyle=orthogonalEdgeStyle;rounded=0;orthogonalLoop=1;jettySize=auto;html=1;exitX=0.5;exitY=1;exitDx=0;exitDy=0;entryX=0.5;entryY=0;entryDx=0;entryDy=0;" edge="1" parent="1" target="dv-XQ-oOFh4G5-1dpEdn-6">
          <mxGeometry relative="1" as="geometry">
            <mxPoint x="130" y="265" as="sourcePoint" />
            <mxPoint x="340" y="325" as="targetPoint" />
            <Array as="points">
              <mxPoint x="130" y="285" />
              <mxPoint x="340" y="285" />
            </Array>
          </mxGeometry>
        </mxCell>
        <mxCell id="dv-XQ-oOFh4G5-1dpEdn-9" style="edgeStyle=orthogonalEdgeStyle;rounded=0;orthogonalLoop=1;jettySize=auto;html=1;exitX=0.5;exitY=1;exitDx=0;exitDy=0;entryX=0.5;entryY=0;entryDx=0;entryDy=0;" edge="1" parent="1" source="hcm8xV-bGuBULuQ5TfT4-2" target="hcm8xV-bGuBULuQ5TfT4-1">
          <mxGeometry relative="1" as="geometry" />
        </mxCell>
        <mxCell id="hcm8xV-bGuBULuQ5TfT4-2" value="&lt;b&gt;&lt;font style=&quot;font-size: 16px;&quot;&gt;myclient.py&lt;/font&gt;&lt;/b&gt;" style="rounded=0;whiteSpace=wrap;html=1;" parent="1" vertex="1">
          <mxGeometry x="50" y="200" width="160" height="60" as="geometry" />
        </mxCell>
        <mxCell id="hcm8xV-bGuBULuQ5TfT4-3" value="&lt;b&gt;&lt;font style=&quot;font-size: 16px;&quot;&gt;gui.py&lt;/font&gt;&lt;/b&gt;" style="rounded=0;whiteSpace=wrap;html=1;" parent="1" vertex="1">
          <mxGeometry x="-140" y="420" width="160" height="60" as="geometry" />
        </mxCell>
        <mxCell id="hcm8xV-bGuBULuQ5TfT4-4" value="&lt;b&gt;&lt;font style=&quot;font-size: 16px;&quot;&gt;playing_handler.py&lt;/font&gt;&lt;/b&gt;" style="rounded=0;whiteSpace=wrap;html=1;" parent="1" vertex="1">
          <mxGeometry x="50" y="310" width="160" height="60" as="geometry" />
        </mxCell>
        <mxCell id="dv-XQ-oOFh4G5-1dpEdn-5" style="edgeStyle=orthogonalEdgeStyle;rounded=0;orthogonalLoop=1;jettySize=auto;html=1;exitX=0.5;exitY=1;exitDx=0;exitDy=0;entryX=0.5;entryY=0;entryDx=0;entryDy=0;" edge="1" parent="1" source="dv-XQ-oOFh4G5-1dpEdn-1" target="dv-XQ-oOFh4G5-1dpEdn-3">
          <mxGeometry relative="1" as="geometry" />
        </mxCell>
        <mxCell id="dv-XQ-oOFh4G5-1dpEdn-1" value="&lt;b&gt;&lt;font style=&quot;font-size: 16px;&quot;&gt;player.py&lt;/font&gt;&lt;/b&gt;" style="rounded=0;whiteSpace=wrap;html=1;" vertex="1" parent="1">
          <mxGeometry x="610" y="200" width="160" height="60" as="geometry" />
        </mxCell>
        <mxCell id="dv-XQ-oOFh4G5-1dpEdn-3" value="&lt;b&gt;&lt;font style=&quot;font-size: 16px;&quot;&gt;recv_player_info&lt;/font&gt;&lt;/b&gt;" style="ellipse;whiteSpace=wrap;html=1;" vertex="1" parent="1">
          <mxGeometry x="540" y="320" width="180" height="40" as="geometry" />
        </mxCell>
        <mxCell id="dv-XQ-oOFh4G5-1dpEdn-6" value="&lt;b&gt;&lt;font style=&quot;font-size: 16px;&quot;&gt;send_player_info&lt;/font&gt;&lt;/b&gt;" style="ellipse;whiteSpace=wrap;html=1;" vertex="1" parent="1">
          <mxGeometry x="250" y="320" width="180" height="40" as="geometry" />
        </mxCell>
        <mxCell id="dv-XQ-oOFh4G5-1dpEdn-8" value="" style="shape=flexArrow;endArrow=classic;startArrow=classic;html=1;rounded=0;exitX=1;exitY=0.5;exitDx=0;exitDy=0;entryX=0;entryY=0.5;entryDx=0;entryDy=0;" edge="1" parent="1" source="dv-XQ-oOFh4G5-1dpEdn-6" target="dv-XQ-oOFh4G5-1dpEdn-3">
          <mxGeometry width="100" height="100" relative="1" as="geometry">
            <mxPoint x="450" y="470" as="sourcePoint" />
            <mxPoint x="550" y="370" as="targetPoint" />
          </mxGeometry>
        </mxCell>
        <mxCell id="dv-XQ-oOFh4G5-1dpEdn-10" value="" style="rounded=0;whiteSpace=wrap;html=1;fillColor=none;strokeWidth=3;" vertex="1" parent="1">
          <mxGeometry x="-150" y="110" width="580" height="400" as="geometry" />
        </mxCell>
        <mxCell id="dv-XQ-oOFh4G5-1dpEdn-11" value="&lt;b&gt;&lt;font style=&quot;font-size: 24px;&quot;&gt;CLIENT&lt;/font&gt;&lt;/b&gt;" style="text;html=1;align=center;verticalAlign=middle;whiteSpace=wrap;rounded=0;" vertex="1" parent="1">
          <mxGeometry x="100" y="70" width="60" height="30" as="geometry" />
        </mxCell>
        <mxCell id="dv-XQ-oOFh4G5-1dpEdn-12" value="" style="rounded=0;whiteSpace=wrap;html=1;fillColor=none;strokeWidth=3;" vertex="1" parent="1">
          <mxGeometry x="540" y="110" width="260" height="400" as="geometry" />
        </mxCell>
        <mxCell id="dv-XQ-oOFh4G5-1dpEdn-13" value="&lt;b&gt;&lt;font style=&quot;font-size: 24px;&quot;&gt;SERVER&lt;/font&gt;&lt;/b&gt;" style="text;html=1;align=center;verticalAlign=middle;whiteSpace=wrap;rounded=0;" vertex="1" parent="1">
          <mxGeometry x="640" y="70" width="60" height="30" as="geometry" />
        </mxCell>
      </root>
    </mxGraphModel>
  </diagram>
</mxfile>
